<?xml version="1.0" encoding="UTF-8"?>
<svg id="Layer_2" data-name="Layer 2" xmlns="http://www.w3.org/2000/svg" viewBox="0 0 134.71 30.25">
  <defs>
    <style>
      .cls-1 {
        fill: #231f20;
      }

      .cls-1, .cls-2 {
        stroke-width: 0px;
      }

      .cls-2 {
        fill: red;
      }
    </style>
  </defs>
  <g id="Layer_1-2" data-name="Layer 1">
    <g>
      <path class="cls-1" d="M.13,14.81c-.06.31-.12.71-.13,1.2l13.29.03c-.04-.35-.04-.78.13-1.2l-13.29-.03Z"/>
      <path class="cls-1" d="M13.59,17.04l-13.56-.03c.03.34.08.71.16,1.1l14.26.03c-.3-.23-.61-.58-.86-1.1"/>
      <path class="cls-1" d="M25.42,23.39l-22.2-.04c.37.34.95.82,1.67,1.27l19.85.04.68-1.26Z"/>
      <path class="cls-1" d="M1.55,21.31c.25.39.55.82.85,1.18l23.48.05.63-1.18-24.97-.05Z"/>
      <path class="cls-1" d="M.81,20.04s.07.13.18.33l26.03.05.71-1.32-27.29-.06c.1.32.22.65.37.99"/>
      <path class="cls-1" d="M6.77,25.55c.78.35,2.21.92,3.51,1.05,1.37.14,1.82.17,3.33.19l9.98.02.66-1.22-17.48-.04Z"/>
      <path class="cls-1" d="M4.9,8.42c-.48.35-.97.75-1.44,1.18l29.33.06.68-1.18-28.57-.06Z"/>
      <path class="cls-1" d="M2.56,10.53c-.29.33-.62.74-.95,1.21l29.95.06.69-1.21-29.7-.06Z"/>
      <path class="cls-1" d="M1.02,12.67c-.22.38-.42.78-.6,1.21l13.72.03c.29-.27.92-.77,1.96-1.2l-15.08-.03Z"/>
      <path class="cls-1" d="M35.28,5.31l.7-1.22-19.63-.04s-1.76,0-3.37.48c-.69.2-1.29.35-2.26.74l24.56.05Z"/>
      <path class="cls-1" d="M8.43,6.31s-.04.02-.05.03c0,0-.84.38-1.97,1.07l27.64.06.63-1.1-26.25-.05Z"/>
      <polygon class="cls-1" points="37.77 .1 38.24 .1 22.07 30.25 21.68 30.25 37.77 .1"/>
      <path class="cls-1" d="M61.96,7.18l.56-3.14h1.52c.9,0,1.27.42,1.15,1.07-.12.68-.6,1.1-1.5,1.1h-.52s-.17.98-.17.98h-1.03ZM63.72,5.47c.24,0,.43-.1.48-.37.05-.29-.27-.33-.49-.33h-.29s-.12.7-.12.7h.43Z"/>
      <path class="cls-1" d="M66.31,6.1l-.19,1.1h-1.03s.56-3.15.56-3.15h1.48c1.05,0,1.34.29,1.24.9-.06.36-.28.67-.67.77.31.12.5.2.38.84-.07.41-.11.55.01.55v.1s-1.06,0-1.06,0c0-.07,0-.27.05-.55.07-.41.03-.55-.45-.55h-.32ZM66.44,5.41h.41c.32,0,.5-.08.54-.3.04-.22-.12-.33-.36-.33h-.48s-.11.62-.11.62Z"/>
      <path class="cls-1" d="M71.93,5.61c-.19,1.07-1.02,1.67-1.95,1.67-.99,0-1.54-.62-1.35-1.69.18-.99.96-1.63,1.94-1.63,1.12,0,1.51.81,1.36,1.64M69.66,5.61c-.07.4-.04.9.46.91.45,0,.69-.38.78-.9.08-.43-.02-.88-.48-.87-.47,0-.69.47-.76.87"/>
      <path class="cls-1" d="M75.12,7.22h-.66s.02-.31.02-.31c-.21.2-.52.38-1.02.38-.8,0-1.43-.52-1.24-1.62.18-1.01.93-1.69,1.95-1.69.75,0,1.29.4,1.28,1.17h-.98c-.03-.26-.19-.4-.45-.4-.41,0-.67.37-.77.92-.08.45-.01.85.51.85.21,0,.51-.14.59-.36h-.46s.12-.68.12-.68h1.41s-.31,1.74-.31,1.74Z"/>
      <path class="cls-1" d="M76.86,6.12l-.2,1.1h-1.03s.56-3.15.56-3.15h1.48c1.05,0,1.35.29,1.24.9-.07.36-.28.67-.67.77.31.12.5.2.38.84-.07.41-.11.55.01.55l-.02.1h-1.05c-.01-.07,0-.27.05-.55.07-.41.03-.55-.45-.55h-.32ZM76.99,5.43h.41c.32,0,.5-.08.54-.3.04-.22-.12-.33-.36-.33h-.48s-.11.62-.11.62Z"/>
      <polygon class="cls-1" points="79.06 7.22 79.62 4.07 82.19 4.08 82.06 4.81 80.53 4.81 80.44 5.26 81.74 5.26 81.61 6 80.31 5.99 80.22 6.49 81.82 6.49 81.69 7.22 79.06 7.22"/>
      <path class="cls-1" d="M84.18,5c0-.11-.04-.18-.11-.21-.07-.04-.16-.06-.26-.06-.23,0-.34.07-.36.18-.08.47,1.78.18,1.57,1.33-.13.73-.8,1.08-1.67,1.08s-1.29-.49-1.2-1.06h.98c0,.12.05.2.13.25.07.05.18.08.28.08.26,0,.44-.08.47-.23.08-.48-1.78-.15-1.57-1.35.12-.67.76-1,1.55-1,.87,0,1.19.45,1.17,1h-.98Z"/>
      <path class="cls-1" d="M87.3,5c0-.11-.04-.18-.11-.21-.07-.04-.16-.06-.26-.06-.23,0-.34.07-.36.18-.08.47,1.78.18,1.57,1.33-.13.73-.8,1.08-1.67,1.08s-1.29-.49-1.2-1.06h.99c0,.12.05.2.13.25.07.05.18.08.28.08.26,0,.45-.08.47-.23.08-.48-1.78-.15-1.57-1.35.12-.67.76-1,1.54-1,.87,0,1.19.45,1.17,1h-.98Z"/>
      <polygon class="cls-1" points="88.4 7.24 88.96 4.09 89.99 4.09 89.43 7.24 88.4 7.24"/>
      <polygon class="cls-1" points="90.38 4.1 91.42 4.1 91.6 6.19 92.54 4.1 93.59 4.1 91.93 7.24 90.89 7.24 90.38 4.1"/>
      <polygon class="cls-1" points="93.41 7.25 93.98 4.1 96.54 4.11 96.41 4.84 94.87 4.84 94.8 5.29 96.09 5.29 95.96 6.02 94.66 6.02 94.58 6.52 96.17 6.52 96.04 7.25 93.41 7.25"/>
      <polygon class="cls-1" points="98.42 7.26 98.98 4.11 101.54 4.12 101.41 4.85 99.88 4.85 99.8 5.3 101.1 5.3 100.96 6.04 99.67 6.03 99.58 6.53 101.17 6.53 101.04 7.26 98.42 7.26"/>
      <path class="cls-1" d="M104.16,7.62l-.35-.43c-.17.07-.44.16-.81.16-1,0-1.54-.63-1.34-1.69.17-.99.96-1.63,1.93-1.63,1.03,0,1.52.73,1.36,1.64-.07.38-.26.81-.57,1.12l.3.36-.52.46ZM103.53,5.74l.27.34c.05-.11.08-.23.12-.4.1-.54-.09-.87-.47-.87-.47,0-.69.47-.76.87-.07.4-.04.9.46.91.05,0,.11-.01.16-.03l-.29-.35.52-.46Z"/>
      <path class="cls-1" d="M105.66,4.13h1.03s-.33,1.88-.33,1.88c-.06.31-.04.58.38.58.37,0,.52-.23.58-.58l.34-1.88h1.03s-.32,1.78-.32,1.78c-.18,1.01-.73,1.45-1.77,1.45-.97,0-1.45-.38-1.26-1.46l.32-1.77Z"/>
      <polygon class="cls-1" points="108.72 7.28 109.29 4.13 110.32 4.14 109.76 7.28 108.72 7.28"/>
      <path class="cls-1" d="M110.3,7.28l.56-3.14h1.52c.9,0,1.27.42,1.15,1.07-.12.68-.6,1.1-1.5,1.1h-.52s-.17.98-.17.98h-1.03ZM112.06,5.57c.24,0,.43-.1.48-.37.05-.29-.27-.33-.49-.33h-.29s-.12.7-.12.7h.43Z"/>
      <polygon class="cls-1" points="113.42 7.29 113.98 4.14 115.23 4.15 115.44 6.11 116.34 4.15 117.58 4.15 117.02 7.29 116.1 7.29 116.27 6.33 116.37 5.84 116.52 5.27 116.52 5.27 115.58 7.29 114.87 7.29 114.65 5.27 114.65 5.27 114.61 5.73 114.54 6.22 114.35 7.29 113.42 7.29"/>
      <polygon class="cls-1" points="117.58 7.3 118.14 4.15 120.7 4.16 120.57 4.89 119.04 4.89 118.96 5.34 120.26 5.34 120.12 6.07 118.83 6.07 118.74 6.56 120.33 6.57 120.2 7.3 117.58 7.3"/>
      <polygon class="cls-1" points="123 5.88 123.09 5.16 123.27 4.16 124.26 4.16 123.7 7.31 122.73 7.31 121.91 5.59 121.82 6.31 121.65 7.3 120.66 7.3 121.22 4.16 122.18 4.16 123 5.88"/>
      <polygon class="cls-1" points="124.65 4.16 127.54 4.17 127.39 5 126.46 4.99 126.05 7.31 125.02 7.31 125.43 4.99 124.5 4.99 124.65 4.16"/>
      <path class="cls-1" d="M130.88,3.28h1.26c.18,0,.32.03.42.08.2.1.3.28.3.56,0,.25-.07.43-.22.52-.14.1-.33.14-.57.14h-1.19s0-1.3,0-1.3ZM130.87,6.65v-1.63s1.18,0,1.18,0c.21,0,.36.02.46.07.17.09.27.25.28.5l.03.64c0,.15.02.25.02.3.01.05.03.09.04.13h.63s0-.08,0-.08c-.08-.04-.13-.11-.17-.23-.02-.07-.03-.18-.03-.32l-.02-.51c0-.22-.05-.38-.12-.48-.08-.1-.19-.18-.34-.24.17-.09.3-.2.4-.35.09-.14.14-.33.14-.56,0-.44-.18-.74-.54-.9-.19-.09-.43-.13-.72-.13h-1.76s0,3.81,0,3.81h.52Z"/>
      <path class="cls-1" d="M128.73,4.79c0,1.65,1.33,2.99,2.98,2.99s2.99-1.33,3-2.98-1.33-2.99-2.98-2.99-2.99,1.33-2.99,2.98M129.05,4.79c0-1.47,1.2-2.67,2.68-2.66s2.67,1.2,2.67,2.67-1.21,2.67-2.68,2.66-2.67-1.2-2.66-2.67"/>
      <path class="cls-1" d="M107.87,11.87l-8.81-.02s-4.32,0-6.98,2.34c0,0-5.2,3.78-1.01,9.15,0,0,2.76,3.18,9.11,3.2h5.84s1.96-3.7,1.96-3.7h-6.79s-2.82.16-4.29-1.34c0,0-2.39-2.09-.07-4.46,0,0,1.37-1.44,4.07-1.42h6.96s0-3.75,0-3.75Z"/>
      <path class="cls-1" d="M54.07,11.76l-.02,10.89s-.21,3.8,3.79,3.8l29.33.06s1.4.16,2.27-.96c0,0,.94-1.03.71-2.46,0,0-.16-1.21-1.2-1.87l-9.46-5.25s-.91-.48-.18-.48l9.54.02,1.82-3.67-14.68-.03s-2.38-.11-3.1,1.28c0,0-1.52,2.02,1,3.98l8.95,4.95s1.44.66-.12.66l-8.86-.02-2.11,3.82.03-14.68h-4.54s-.02,10.92-.02,10.92h-6.39c-1.6-.02-1.56-1.83-1.56-1.83l.02-9.11-14.36-.03s-4.32,0-6.97,2.34c0,0-5.2,3.78-1.01,9.15,0,0,2.77,3.32,9.11,3.2h5.84s1.96-3.7,1.96-3.7h-6.79s-2.82.16-4.29-1.34c0,0-2.39-2.09-.07-4.46,0,0,1.38-1.44,4.07-1.42h7.23"/>
      <path class="cls-1" d="M117.1,11.83c-5.54-.01-10.04,3.27-10.05,7.33s4.48,7.37,10.02,7.38c5.54.01,10.04-3.27,10.05-7.34s-4.48-7.36-10.02-7.38M117.08,22.8c-2.62,0-4.74-1.63-4.74-3.63s2.13-3.61,4.75-3.61c2.62,0,4.74,1.63,4.74,3.62s-2.13,3.61-4.75,3.61"/>
    </g>
    <g>
      <g>
        <path class="cls-2" d="M.14,14.72c-.06.31-.12.71-.13,1.2l13.29.03c-.04-.35-.04-.78.13-1.2l-13.29-.03Z"/>
        <path class="cls-2" d="M13.59,16.94l-13.56-.03c.03.34.08.71.16,1.1l14.26.03c-.3-.23-.62-.58-.86-1.1"/>
        <path class="cls-2" d="M25.42,23.29l-22.2-.04c.37.34.95.82,1.67,1.27l19.85.04.68-1.26Z"/>
        <path class="cls-2" d="M1.55,21.21c.25.39.55.82.86,1.18l23.48.05.63-1.18-24.97-.05Z"/>
        <path class="cls-2" d="M.81,19.94s.07.13.18.33l26.03.05.71-1.32-27.29-.06c.1.32.22.65.37.99"/>
        <path class="cls-2" d="M6.77,25.45c.78.35,2.21.92,3.51,1.05,1.37.14,1.82.17,3.33.19l9.98.02.66-1.22-17.48-.04Z"/>
        <path class="cls-2" d="M4.9,8.32c-.48.35-.97.75-1.44,1.18l29.34.06.68-1.18-28.57-.06Z"/>
        <path class="cls-2" d="M2.56,10.43c-.29.33-.62.74-.95,1.21l29.95.06.69-1.21-29.7-.06Z"/>
        <path class="cls-2" d="M1.02,12.57c-.22.38-.43.78-.6,1.21l13.72.03c.29-.27.92-.77,1.96-1.2l-15.08-.03Z"/>
        <path class="cls-2" d="M35.28,5.22l.7-1.22-19.63-.04s-1.76,0-3.37.47c-.69.2-1.29.35-2.26.74l24.56.05Z"/>
        <path class="cls-2" d="M8.43,6.21s-.04.02-.06.03c0,0-.84.38-1.97,1.07l27.64.06.63-1.1-26.25-.05Z"/>
        <polygon class="cls-2" points="37.77 0 38.24 0 22.07 30.16 21.68 30.16 37.77 0"/>
      </g>
      <g>
        <path class="cls-1" d="M61.96,7.09l.56-3.14h1.52c.9,0,1.27.42,1.15,1.07-.12.68-.6,1.1-1.5,1.1h-.52s-.17.98-.17.98h-1.03ZM63.73,5.38c.24,0,.43-.1.48-.37.05-.29-.27-.33-.49-.33h-.29s-.12.7-.12.7h.43Z"/>
        <path class="cls-1" d="M66.32,6l-.2,1.1h-1.03s.56-3.15.56-3.15h1.49c1.05,0,1.34.29,1.23.9-.07.36-.28.67-.67.77.31.12.5.2.38.84-.07.41-.11.55.01.55l-.02.09h-1.05c-.01-.07,0-.27.05-.55.07-.41.03-.55-.45-.55h-.32ZM66.44,5.31h.41c.32,0,.5-.08.54-.3.04-.22-.12-.33-.36-.33h-.48s-.11.62-.11.62Z"/>
        <path class="cls-1" d="M71.93,5.52c-.19,1.07-1.02,1.67-1.95,1.67-.99,0-1.54-.62-1.35-1.69.18-.99.96-1.63,1.94-1.63,1.12,0,1.51.81,1.36,1.64M69.67,5.51c-.07.4-.04.9.46.91.44,0,.69-.38.78-.9.08-.43-.02-.88-.47-.87-.47,0-.69.47-.76.87"/>
        <path class="cls-1" d="M75.12,7.12h-.66s.02-.31.02-.31c-.21.2-.52.38-1.02.38-.8,0-1.43-.52-1.24-1.62.18-1,.93-1.69,1.95-1.69.75,0,1.29.4,1.28,1.17h-.98c-.03-.26-.19-.4-.46-.4-.41,0-.67.37-.76.92-.08.45-.01.85.51.85.21,0,.5-.14.59-.36h-.45s.12-.68.12-.68h1.41s-.31,1.74-.31,1.74Z"/>
        <path class="cls-1" d="M76.87,6.02l-.2,1.1h-1.03s.56-3.15.56-3.15h1.49c1.05,0,1.34.29,1.23.9-.06.36-.28.67-.67.77.31.12.5.2.38.84-.07.41-.11.55.01.55l-.02.09h-1.04c-.01-.07,0-.27.04-.55.07-.41.03-.55-.45-.55h-.32ZM76.99,5.33h.41c.32,0,.5-.08.54-.3.04-.22-.12-.33-.36-.33h-.48s-.11.62-.11.62Z"/>
        <polygon class="cls-1" points="79.06 7.12 79.62 3.98 82.19 3.98 82.06 4.72 80.53 4.71 80.44 5.16 81.74 5.16 81.61 5.9 80.31 5.9 80.22 6.39 81.82 6.39 81.69 7.13 79.06 7.12"/>
        <path class="cls-1" d="M84.19,4.9c0-.11-.04-.18-.11-.21-.07-.04-.16-.06-.26-.06-.23,0-.34.07-.36.18-.08.47,1.78.18,1.58,1.33-.13.73-.8,1.08-1.67,1.08s-1.28-.49-1.2-1.06h.99c0,.12.05.2.13.25.07.05.18.08.28.08.26,0,.44-.08.47-.23.08-.48-1.78-.15-1.57-1.35.12-.67.76-1,1.55-1,.87,0,1.19.45,1.17,1h-.98Z"/>
        <path class="cls-1" d="M87.3,4.91c0-.11-.04-.18-.11-.21-.07-.04-.16-.06-.25-.06-.23,0-.34.07-.36.18-.08.47,1.78.18,1.57,1.33-.13.73-.8,1.08-1.67,1.08s-1.28-.49-1.2-1.06h.99c0,.12.05.2.13.25.07.05.18.08.28.08.26,0,.45-.08.47-.23.08-.48-1.78-.15-1.57-1.35.12-.67.76-1,1.54-1,.87,0,1.19.45,1.17,1h-.98Z"/>
        <polygon class="cls-1" points="88.4 7.14 88.96 4 89.99 4 89.43 7.14 88.4 7.14"/>
        <polygon class="cls-1" points="90.38 4 91.42 4 91.6 6.09 92.54 4 93.59 4 91.93 7.15 90.89 7.15 90.38 4"/>
        <polygon class="cls-1" points="93.41 7.15 93.98 4.01 96.54 4.01 96.41 4.74 94.88 4.74 94.8 5.19 96.09 5.19 95.96 5.93 94.66 5.92 94.58 6.42 96.17 6.42 96.04 7.16 93.41 7.15"/>
        <polygon class="cls-1" points="98.42 7.16 98.98 4.02 101.54 4.02 101.41 4.75 99.88 4.75 99.8 5.2 101.1 5.2 100.97 5.94 99.67 5.94 99.58 6.43 101.18 6.43 101.04 7.17 98.42 7.16"/>
        <path class="cls-1" d="M104.16,7.53l-.35-.43c-.17.07-.45.16-.81.16-1,0-1.54-.63-1.34-1.69.17-.99.96-1.63,1.94-1.63,1.03,0,1.52.73,1.36,1.64-.07.39-.26.81-.57,1.12l.29.36-.52.46ZM103.53,5.64l.27.34c.05-.11.09-.23.12-.4.1-.54-.09-.87-.47-.87-.47,0-.69.47-.76.87-.07.4-.04.91.46.91.05,0,.11-.01.16-.03l-.29-.35.52-.46Z"/>
        <path class="cls-1" d="M105.66,4.03h1.03s-.34,1.89-.34,1.89c-.06.31-.04.58.38.58.37,0,.52-.23.58-.58l.34-1.88h1.03s-.32,1.78-.32,1.78c-.18,1.01-.73,1.45-1.77,1.45-.97,0-1.45-.37-1.26-1.46l.32-1.77Z"/>
        <polygon class="cls-1" points="108.72 7.18 109.29 4.04 110.32 4.04 109.76 7.18 108.72 7.18"/>
        <path class="cls-1" d="M110.3,7.18l.56-3.14h1.52c.9,0,1.27.42,1.15,1.07-.12.68-.6,1.1-1.5,1.1h-.52s-.18.98-.18.98h-1.03ZM112.06,5.48c.24,0,.43-.1.48-.37.05-.29-.27-.33-.49-.33h-.29s-.12.7-.12.7h.43Z"/>
        <polygon class="cls-1" points="113.42 7.19 113.99 4.05 115.23 4.05 115.43 6.01 116.34 4.05 117.58 4.05 117.03 7.2 116.1 7.2 116.27 6.24 116.37 5.75 116.52 5.18 116.52 5.18 115.58 7.2 114.87 7.19 114.65 5.17 114.65 5.17 114.61 5.64 114.54 6.13 114.35 7.19 113.42 7.19"/>
        <polygon class="cls-1" points="117.58 7.2 118.14 4.05 120.7 4.06 120.57 4.79 119.04 4.79 118.96 5.24 120.26 5.24 120.12 5.98 118.83 5.97 118.74 6.47 120.33 6.47 120.2 7.2 117.58 7.2"/>
        <polygon class="cls-1" points="123 5.78 123.09 5.06 123.27 4.06 124.26 4.07 123.7 7.21 122.73 7.21 121.91 5.5 121.82 6.21 121.65 7.21 120.66 7.21 121.22 4.06 122.18 4.06 123 5.78"/>
        <polygon class="cls-1" points="124.65 4.07 127.54 4.07 127.39 4.9 126.46 4.9 126.05 7.22 125.02 7.21 125.43 4.89 124.5 4.89 124.65 4.07"/>
        <path class="cls-1" d="M130.88,3.19h1.26c.18,0,.32.03.42.08.2.1.3.28.3.56,0,.25-.07.43-.21.52-.14.1-.33.15-.57.14h-1.19s0-1.3,0-1.3ZM130.88,6.55v-1.63s1.18,0,1.18,0c.21,0,.36.02.46.07.17.08.27.25.28.5l.03.63c0,.15.02.25.03.3.01.05.02.09.04.13h.63s0-.08,0-.08c-.08-.04-.13-.11-.16-.23-.02-.07-.03-.18-.04-.32l-.02-.51c0-.22-.05-.38-.12-.48-.08-.1-.19-.18-.34-.24.17-.09.3-.2.4-.35.09-.15.14-.33.14-.56,0-.44-.18-.74-.54-.9-.19-.09-.43-.13-.72-.13h-1.76s0,3.81,0,3.81h.52Z"/>
        <path class="cls-1" d="M128.74,4.69c0,1.65,1.33,2.99,2.98,2.99s2.99-1.33,3-2.98-1.33-2.99-2.98-2.99-2.99,1.33-2.99,2.98M129.05,4.69c0-1.47,1.21-2.67,2.68-2.66s2.67,1.2,2.67,2.67-1.21,2.67-2.68,2.66-2.67-1.2-2.66-2.68"/>
        <path class="cls-1" d="M107.87,11.77l-8.81-.02s-4.32,0-6.97,2.34c0,0-5.2,3.79-1.01,9.15,0,0,2.76,3.18,9.11,3.2h5.84s1.96-3.7,1.96-3.7h-6.79s-2.82.16-4.29-1.34c0,0-2.39-2.09-.07-4.45,0,0,1.38-1.44,4.07-1.42h6.96s0-3.75,0-3.75Z"/>
        <path class="cls-1" d="M54.07,11.66l-.02,10.89s-.21,3.8,3.79,3.8l29.33.06s1.4.16,2.27-.96c0,0,.94-1.03.71-2.46,0,0-.16-1.21-1.2-1.87l-9.46-5.26s-.91-.49-.18-.48l9.54.02,1.82-3.67-14.68-.03s-2.38-.11-3.1,1.28c0,0-1.52,2.02,1,3.98l8.95,4.95s1.44.66-.12.66l-8.86-.02-2.11,3.82.03-14.68h-4.54s-.02,10.92-.02,10.92h-6.39c-1.6-.02-1.56-1.83-1.56-1.83l.02-9.11-14.36-.03s-4.32,0-6.97,2.34c0,0-5.2,3.79-1.01,9.15,0,0,2.77,3.32,9.11,3.2h5.84s1.96-3.7,1.96-3.7h-6.79s-2.82.16-4.29-1.34c0,0-2.39-2.09-.07-4.45,0,0,1.38-1.44,4.07-1.42h7.23"/>
        <path class="cls-1" d="M117.1,11.74c-5.54-.01-10.04,3.27-10.05,7.33s4.48,7.37,10.02,7.38c5.54.01,10.04-3.27,10.05-7.34s-4.48-7.36-10.02-7.37M117.08,22.71c-2.62,0-4.74-1.63-4.74-3.63s2.13-3.61,4.75-3.61,4.74,1.63,4.74,3.62-2.13,3.61-4.75,3.61"/>
      </g>
    </g>
  </g>
</svg>