<?xml version="1.0" encoding="UTF-8"?>
<svg id="Layer_1" data-name="Layer 1" xmlns="http://www.w3.org/2000/svg" viewBox="0 0 432.9 55.04">
  <defs>
    <style>
      .cls-1 {
        fill: #ed1b2f;
        stroke-width: 0px;
      }
    </style>
  </defs>
  <polygon class="cls-1" points="149.62 53.79 165.88 53.79 176.82 1.25 160.55 1.25 149.62 53.79"/>
  <path class="cls-1" d="M137.06,1.25l-7.91,37.01c-.52,2.65-1.55,4.27-4.43,4.27-2.22,0-3.47-1.4-3.47-3.68,0-1.91.96-5.22,1.26-7.13h-14.56c-.82,2.94-1.33,7.06-1.33,9.57,0,6.62,4.07,13.76,17.37,13.76s19.51-5.96,21.73-18.03l7.61-35.76h-16.26Z"/>
  <path class="cls-1" d="M82.77,30.1c-1.18,5.81-3.25,11.85-9.98,11.85s-6.14-5.3-6.14-6.92c0-.81.44-3.46.81-5.08l5.98-28.7h-16.26l-7.02,33.48c-.22,1.18-.59,3.24-.59,4.27,0,8.39,6.58,16.04,22.39,16.04,13.3,0,23.06-5.81,25.87-19.06L105.09,1.25h-16.26l-6.06,28.85Z"/>
  <polygon class="cls-1" points="48.93 14.72 51.74 1.25 11.01 1.25 0 53.79 16.26 53.79 20.47 33.77 41.24 33.77 43.83 21.27 23.06 21.27 24.47 14.72 48.93 14.72"/>
  <polygon class="cls-1" points="227.06 1.25 181.52 1.25 178.72 14.72 193.35 14.72 185.22 53.79 201.48 53.79 209.61 14.72 224.24 14.72 227.06 1.25"/>
  <path class="cls-1" d="M408.87,0c-17.96,0-29.64,14.35-29.64,32.01,0,15.16,9.09,23.03,24.03,23.03,17.96,0,29.64-14.35,29.64-32.01C432.9,6.99,423.8,0,408.87,0M403.7,41.94c-6.36,0-8.21-4.79-8.21-9.57,0-7.8,3.18-19.28,12.94-19.28,6.36,0,8.2,4.78,8.2,9.57,0,7.8-3.18,19.28-12.93,19.28"/>
  <path class="cls-1" d="M249.59,11.63c1.85,0,3.54.29,4.73,1.18,1.18.88,1.92,2.21,1.85,4.34h15.01c.29-12.95-9.83-17.15-21.06-17.15-10.65,0-22.18,5.45-22.18,17.29,0,8.76,6.21,12.14,12.64,14.28,7.32,2.43,12.71,2.94,12.71,6.77,0,3.46-3.92,5.08-7.1,5.08-2.66,0-4.58-.15-5.99-1.33-1.33-1.32-1.99-3.09-1.99-5.96h-15.75c-.66,13.39,10.28,18.91,22.4,18.91,11.46,0,23.8-5.96,23.8-18.62,0-6.25-3.1-11.26-12.27-14.49-5.17-1.84-13.08-2.06-13.08-6.03,0-3.46,3.55-4.27,6.29-4.27"/>
  <path class="cls-1" d="M312.49,1.25l-6.06,28.85c-1.18,5.81-3.25,11.85-9.98,11.85s-6.13-5.3-6.13-6.91c0-.81.44-3.46.81-5.08l5.99-28.7h-16.26l-7.02,33.48c-.22,1.18-.59,3.24-.59,4.27,0,8.39,6.57,16.04,22.39,16.04,13.3,0,23.06-5.81,25.87-19.06l7.24-34.73h-16.26Z"/>
  <path class="cls-1" d="M369.17,25.6v-.14h.07c6.36-1.69,9.69-6.04,9.69-12.66,0-7.58-4.29-11.55-15.75-11.55h-27.12l-10.94,52.54h30.31c11.53,0,21.73-5,21.73-17.66,0-4.86-3.1-9.49-7.98-10.52M354.01,41.28h-10.42l2.07-9.79h8.94c3.4,0,6.29.59,6.29,4.49,0,4.27-3.99,5.3-6.88,5.3M356.82,21.71h-9.17l1.63-7.95h8.35c2.88,0,5.02.59,5.02,3.75s-3.25,4.19-5.84,4.19"/>
</svg>