<?xml version="1.0" encoding="UTF-8"?>
<svg id="Layer_2" data-name="Layer 2" xmlns="http://www.w3.org/2000/svg" viewBox="0 0 111.9 119.46">
  <defs>
    <style>
      .cls-1 {
        fill: #000;
        stroke-width: 0px;
      }
    </style>
  </defs>
  <g id="Layer_1-2" data-name="Layer 1">
    <path class="cls-1" d="M47.45,119.46c1.96,0,3.54-1.59,3.54-3.54,0,0,0,0,0,0v-53.4s0,0,0,0c0-2.48-1.88-4.5-4.28-4.78,2.41-.28,4.28-2.3,4.28-4.78,0-.27-.04-.52-.08-.78h.01s-.03-.13-.03-.13c0-.04-.02-.09-.03-.13L40.93,2.9s-.02-.09-.03-.14l-.02-.09h0c-.39-1.53-1.77-2.67-3.42-2.67,0,0,0,0,0,0H3.55s0,0,0,0C1.59,0,0,1.59,0,3.54H0s0,0,0,0v112.37h0c0,1.96,1.59,3.54,3.54,3.54M19.07,119.46c1.96,0,3.54-1.59,3.54-3.54,0-.1-.02-.19-.03-.28.97,2.25,3.2,3.82,5.81,3.82"/>
    <path class="cls-1" d="M93.43,3.54c0-1.96-1.59-3.54-3.54-3.54,0,0,0,0,0,0h-40.37s0,0,0,0c-1.96,0-3.54,1.59-3.54,3.54,0,.66,10.02,50.53,10.02,50.53,0,.05-.02.1-.02.15h0v61.69h0c0,1.96,1.59,3.54,3.54,3.54h0s0,0,0,0,0,0,0,0h14.58s0,0,0,0,0,0,0,0h.1c1.91-.07,3.44-1.62,3.44-3.54h0s0,0,0,0v-61.69h0c0-1.37,15.78-48.94,15.78-50.68Z"/>
    <path class="cls-1" d="M111.9,3.54c0-1.96-1.59-3.54-3.54-3.54h-7.14c-1.96,0-2.74.58-3.54,3.54-.69,2.52-13.25,41.34-14.26,44.46-1.01,3.13-1.52,5-1.52,6.22,0,0,0,0,0,0h0s0,59.73,0,61.68,1.59,3.54,3.54,3.54h22.92c1.96,0,3.54-1.59,3.54-3.54"/>
  </g>
</svg>