<svg xmlns="http://www.w3.org/2000/svg" viewBox="0 0 164 35">
    <style>
        .prefix__st1 {
            fill: #c00
        }
    </style>
    <path fill="none" d="M-18-18h199.9v70.9H-18z" />
    <path class="prefix__st1"
        d="M128.6 19v-2.5l2.5-.3c.9-.1 1.2-.9 1.3-1.1L138.7 5c.5-.8 0-1.5-.6-1.6l-3.3-.4V.5H149c.8 0 1.3.6 1.6 1l8.3 12.7c.7 1 1.2 1.8 2 1.9l2.6.3V19h-16v-2.5l2-.2c1-.1 1.8-.6 1-1.7l-.8-1.2h-11.3l-.9 1.4c-.5.9 0 1.4.8 1.5l2 .2V19h-11.7m11.9-9h7.2L144 4.3l-3.5 5.7M118 .5H99.7V3l2.3.2c.8.1 1.2.7 1.2 1.6v9.9c0 .7-.3 1.3-1 1.4l-2.5.3v2.4H118c8.4 0 12-4.1 12-9.5.1-4.7-3.6-8.8-12-8.8m-2.8 14.9h-4.7V4h4.7c4.5 0 6.4 1 6.4 5.7s-1.9 5.7-6.4 5.7M.5 19h14.8v-2.5l-2.5-.3c-.6-.1-1.2-.4-1.2-1.7v-3H23v2.8c0 .8-.1 1.6-1.1 1.7l-2.6.3V19h14.8v-2.5l-2.6-.3c-.5-.1-1.1-.5-1.1-1.5V5c0-1 .4-1.6 1.1-1.7l2.6-.3V.5H19.3V3l2.6.3c.8.1 1.1.8 1.1 1.7v2.9H11.6V5c0-1.1.4-1.6 1.2-1.7l2.5-.3V.5H.5V3l2.5.3c1 .1 1.2.8 1.2 1.8v9.4c0 1-.3 1.7-1.2 1.8l-2.5.3V19M34.8 9.6c0-5.8 4.7-9.9 15.1-9.9C60.3-.2 65 3.8 65 9.6c0 5.9-4.7 10-15.1 10-10.4 0-15.1-4-15.1-10m15.1-6.3c-4.2 0-6.6 1.6-6.6 6.3 0 4.9 2.4 6.4 6.6 6.4 4.2 0 6.6-1.6 6.6-6.4 0-4.7-2.4-6.3-6.6-6.3M65.8 19h11.8v-2.5l-2.6-.3c-.7-.1-1.2-.7-1.2-1.5V5.3l9.8 12.9c.3.4.9.7 1.5.7h9.3V5c0-.7.2-1.6 1.1-1.7l2.7-.3V.5H86.4V3l2.6.3c.9.1 1.1.9 1.1 1.7v9.1L80.3 1.3c-.4-.5-.8-.8-1.5-.8h-13V3l2.5.3c.9.1 1.2.6 1.2 1.8v9.4c0 1.1-.3 1.6-1.2 1.8l-2.4.3V19" />
    <g>
        <path
            d="M6.5 26.8h3.7v7.7h1.4v-7.7h3.7v-1H6.5zM20.7 27.7c-1.2 0-2.2.5-2.8 1.3v-3.2h-1.3v8.7H18v-3.1c0-2.1 1.3-2.8 2.6-2.8s2 .8 2 2.2v3.7h1.3v-3.8c-.1-1.9-1.2-3-3.2-3zM52.7 28.4c-.7-.6-1.7-.9-3.1-.9-1.3 0-2.3.3-3 1-.7.6-1 1.5-1 2.6 0 1.2.4 2 1 2.7.7.6 1.7.9 3 .9 2.6 0 4.1-1.3 4.1-3.6 0-1.2-.3-2.1-1-2.7zm-.4 2.6c0 .8-.2 1.4-.7 1.9-.5.5-1.2.8-2 .8s-1.5-.3-2-.8c-.4-.5-.7-1.1-.7-1.9 0-1.7 1-2.7 2.7-2.7 1.7.1 2.7 1 2.7 2.7zM91.7 28.4c-.7-.6-1.7-.9-3.1-.9-1.3 0-2.3.3-3 1-.7.5-1.1 1.5-1.1 2.5 0 2.3 1.4 3.6 4.1 3.6 1.3 0 2.3-.3 3-.9.7-.6 1.1-1.5 1.1-2.7 0-1.1-.4-2-1-2.6zm-5.1.7c.5-.5 1.2-.7 2-.7 1.7 0 2.7 1 2.7 2.7 0 .8-.2 1.4-.7 1.9-.5.5-1.2.8-2 .8-1.6 0-2.7-1-2.7-2.7 0-.9.2-1.5.7-2zM118.1 27.5c-1.3.1-2 .9-2.5 1.7v-1.7h-1.2v6.9h1.3v-3.7c0-.7.3-1.2.8-1.6.5-.4 1.1-.6 1.8-.6h.6v-1.1c-.2.1-.7.1-.8.1zM41 25.8h-4v8.7h1.4v-3.3h2.8c1.2 0 2.1-.3 2.7-.8.6-.5.9-1.2.9-2 0-.7-.2-1.2-.6-1.7-.7-.6-1.7-.9-3.2-.9zm2.3 2.6c0 1.2-.7 1.8-2.3 1.8h-2.7v-3.4H41c1.6 0 2.3.5 2.3 1.6zM111.3 26.9c-.8-.8-2.1-1.1-3.9-1.1h-3.9v8.7h3.9c1.6 0 2.9-.4 3.7-1.1.9-.8 1.3-1.8 1.3-3.2.2-1.5-.2-2.6-1.1-3.3zm-6.3-.1h2.2c1.6 0 2.6.3 3.2.9.5.5.8 1.3.8 2.5 0 2.3-1.2 3.4-3.8 3.4H105v-6.8zM135.3 33v-2.9c0-.7 0-1.3-.7-1.9-.6-.5-1.6-.8-2.6-.8s-2.8.3-3.2 1.7h1.4c.2-.5.9-.8 1.7-.8 1.2 0 2.1.5 2.1 1.6v.2h-1.1c-1.2 0-3 0-3.9.9-.3.3-.5.8-.5 1.3 0 1.3 1.1 2.2 2.8 2.2 1.3 0 2.1-.2 2.8-1.2 0 0 0 .6.1 1h1.3s-.2-.6-.2-1.3zm-1.3-1.6c0 1.5-.8 2.3-2.4 2.3-1.1 0-1.7-.5-1.7-1.3 0-.3.1-.5.3-.7.5-.5 1.7-.6 2.6-.6H134.1v.3zM145.8 27.4c-1.4 0-2.2.9-2.5 1.7-.4-1-1.3-1.7-2.3-1.7-1.1 0-1.9.5-2.4 1.5 0 0 0-.6-.1-1.3h-1.2v6.9h1.3v-3.3c0-1.9 1-2.8 2.1-2.8s1.6.8 1.6 2.6v3.5h1.3v-3.3c0-1 .3-1.8.8-2.3.5-.5 1.1-.5 1.3-.5.6 0 1 .2 1.3.7.2.4.3 1 .3 2v3.5h1.3v-4c0-1-.3-1.8-.8-2.4-.6-.5-1.2-.8-2-.8zM155.2 30.7l-2.2-.4c-1-.2-1.5-.5-1.5-1 0-.6.8-1 2-1 1 0 1.7.3 1.9.8h1.4c-.1-.6-.4-1-1-1.3-.7-.3-1.6-.4-2.2-.4-.9 0-1.7.2-2.3.5-.6.4-1.1.9-1.1 1.6 0 .9.7 1.5 1.9 1.7l2.1.4c.7.1 1.4.4 1.4 1 0 .7-.8 1.1-2.1 1.1-1.1 0-1.8-.3-2-1h-1.4c.3 1.6 1.9 1.9 3.3 1.9 2.5 0 3.7-.7 3.7-2.2 0-.9-.6-1.4-1.9-1.7zM97.4 25.7c-.7 0-1.3.1-1.9.5-.2.2-.4.5-.6.9-.1.4-.2.8-.2 1.4h-1.4v.9h1.4v5.1H96v-5.1h2.4v-.9H96c0-1 0-1.3.3-1.5.2-.2.5-.3 1.1-.3.4 0 .8 0 1 .1v-1c-.1-.1-.5-.1-1-.1zM64.2 30.6c-.3.8-.5 1.8-.9 2.9-.3-.9-.6-1.9-.9-2.9l-.9-2.8h-2l-.9 2.8c-.3.9-.6 1.9-.9 2.9-.3-1.2-.6-2.1-.9-2.9l-.8-2.7h-1.4l2.1 6.6h2l1-2.9c.1-.2.2-.5.2-.7.2-.7.4-1.4.7-2.1.2.7.5 1.5.7 2.2.1.2.1.4.2.6l.9 2.9h2l2.1-6.6h-1.4l-.9 2.7zM80 27.5c-1.3.1-2 .9-2.5 1.7v-1.7h-1.2v6.9h1.3v-3.7c0-.7.3-1.2.8-1.6.5-.4 1.1-.6 1.8-.6h.6v-1.1c-.1.1-.6.1-.8.1zM73.7 28.4c-.6-.6-1.5-1-2.6-1-2.4 0-3.8 1.4-3.8 3.7 0 1 .3 1.9 1 2.5.6.6 1.6 1 2.8 1 .9 0 1.7-.2 2.2-.6.6-.3 1-.8 1.2-1.4H73c-.4.6-1.1 1-2.1 1s-1.7-.4-2.1-1.2c-.2-.3-.3-.7-.3-1.1h6V31c.1-1.1-.2-2-.8-2.6zm-5.1 2.1c0-.1 0-.3.1-.4.3-1.1 1.1-1.7 2.3-1.7 1.6 0 2.2 1.1 2.2 2.1h-4.6zM126 28.4c-.6-.6-1.5-1-2.6-1-2.4 0-3.8 1.4-3.8 3.7 0 1 .3 1.9 1 2.5.6.6 1.6 1 2.8 1 .9 0 1.7-.2 2.2-.6.6-.3 1-.8 1.2-1.4h-1.4c-.4.6-1.1 1-2.1 1s-1.7-.4-2.1-1.2c-.2-.3-.3-.7-.3-1.1h6v-.9c-.1-.5-.2-1.4-.9-2zm-5.1 2.1c0-.1 0-.3.1-.4.3-1.1 1.1-1.7 2.3-1.7 1.6 0 2.2 1.1 2.2 2.1h-4.6zM31.8 28.4c-.6-.6-1.5-1-2.6-1-2.4 0-3.8 1.4-3.8 3.7 0 1 .3 1.9 1 2.5.6.6 1.6 1 2.8 1 .9 0 1.7-.2 2.2-.6.6-.3 1-.8 1.2-1.4h-1.4c-.4.6-1.1 1-2.1 1s-1.7-.4-2.1-1.2c-.2-.3-.3-.7-.3-1.1h6V31c0-1.1-.3-2-.9-2.6zm-5.1 2.1c0-.1 0-.3.1-.4.3-1.1 1.1-1.7 2.3-1.7 1.6 0 2.2 1.1 2.2 2.1h-4.6z" />
    </g>
</svg>